<?xml version="1.0" encoding="UTF-8" standalone="no"?>
<!-- Created with Inkscape (http://www.inkscape.org/) -->

<svg
   xmlns:dc="http://purl.org/dc/elements/1.1/"
   xmlns:cc="http://creativecommons.org/ns#"
   xmlns:rdf="http://www.w3.org/1999/02/22-rdf-syntax-ns#"
   xmlns:svg="http://www.w3.org/2000/svg"
   xmlns="http://www.w3.org/2000/svg"
   version="1.1"
   width="128"
   height="32"
   id="svg4523">
  <defs
     id="defs4525" />
  <metadata
     id="metadata4528">
    <rdf:RDF>
      <cc:Work
         rdf:about="">
        <dc:format>image/svg+xml</dc:format>
        <dc:type
           rdf:resource="http://purl.org/dc/dcmitype/StillImage" />
        <dc:title></dc:title>
      </cc:Work>
    </rdf:RDF>
  </metadata>
  <g
     transform="translate(0,-1020.3622)"
     id="layer1">
    <rect
       width="128"
       height="32"
       x="0"
       y="0"
       transform="translate(0,1020.3622)"
       id="rect4533"
       style="fill:#ffdd55;fill-opacity:1;stroke:#000000;stroke-opacity:1" />
    <path
       d="M 0,32 32,0 48,0 16,32 0,32"
       transform="translate(0,1020.3622)"
       id="path4535"
       style="fill:#000000;stroke:#000000;stroke-width:1px;stroke-linecap:butt;stroke-linejoin:miter;stroke-opacity:1" />
    <path
       d="M 32,32 64,0 96,32 80,32 64,16 48,32 32,32"
       transform="translate(0,1020.3622)"
       id="path4537"
       style="fill:#000000;stroke:#000000;stroke-width:1px;stroke-linecap:butt;stroke-linejoin:miter;stroke-opacity:1" />
    <path
       d="m 80,0 32,32 16,0 L 96,0 z"
       transform="translate(0,1020.3622)"
       id="path4539"
       style="fill:#000000;stroke:#000000;stroke-width:1px;stroke-linecap:butt;stroke-linejoin:miter;stroke-opacity:1" />
    <path
       d="m 112,0 16,16 0,-16 z"
       transform="translate(0,1020.3622)"
       id="path4541"
       style="fill:#000000;stroke:#000000;stroke-width:1px;stroke-linecap:butt;stroke-linejoin:miter;stroke-opacity:1" />
    <path
       d="M 0,16 16,0 0,0 z"
       transform="translate(0,1020.3622)"
       id="path4543"
       style="fill:#000000;stroke:#000000;stroke-width:1px;stroke-linecap:butt;stroke-linejoin:miter;stroke-opacity:1" />
  </g>
</svg>
